<?xml version="1.0" encoding="utf-8"?>
<!-- Generator: Adobe Illustrator 27.5.0, SVG Export Plug-In . SVG Version: 6.00 Build 0)  -->
<svg version="1.1" id="Layer_1" xmlns="http://www.w3.org/2000/svg" xmlns:xlink="http://www.w3.org/1999/xlink" x="0px" y="0px"
	 viewBox="0 0 100 100" style="enable-background:new 0 0 100 100;" xml:space="preserve">
<style type="text/css">
	.st0{fill:#FFFFFF;}
	.st1{fill:#FFC629;}
	.st2{fill:#F8B317;}
	.st3{opacity:0.25;fill:#E8A223;enable-background:new    ;}
	.st4{fill:#101010;}
</style>
<g>
	<g>
		<g>
			<g>
				<g id="Layer_2_00000175319890804602387970000015902416666236126655_">
					<g id="Layer_1-2_00000062174234256757384500000000002218906757542308_">
						<path class="st0" d="M74.9,19.2c-13.1,0-23.7,10.6-23.7,23.7s10.6,23.7,23.7,23.7S98.7,56,98.7,42.9S88,19.2,74.9,19.2z
							 M74.9,57.3c-8,0-14.4-6.5-14.4-14.4S67,28.5,74.9,28.5s14.4,6.5,14.4,14.4S82.9,57.3,74.9,57.3L74.9,57.3z"/>
						<path class="st1" d="M47.8,40.2V65h-7.3v-4.2c-7.9,6.8-19.3,7.6-28.1,2.1c0.9,0.1,1.8,0.2,2.7,0.2c7.2,0,13.6-3.2,18-8.2
							c1.7-1.9,3-4.1,4-6.4H23.9v-8.3H47.8z"/>
						<path class="st0" d="M47.7,35.8h-10c-2.8-5-8.4-7.9-14.1-7.3c-6.7,0.7-12.1,6-12.9,12.7C9.9,48.6,14.6,55,21.3,56.8
							c-3.7,2.3-8,3.4-12.3,3.4h0c-6-5.6-9.2-14.3-6.8-23.6c2.6-10.4,12.2-17.5,22.9-17.5h0c0.9,0,1.8,0.1,2.7,0.2
							C37.2,20.4,45,27,47.7,35.8z"/>
						<path class="st2" d="M75,20.4c12.4,0,22.5,10.1,22.5,22.5S87.4,65.4,75,65.4S52.5,55.3,52.5,42.9S62.6,20.4,75,20.4 M75,20.1
							c-12.6,0-22.8,10.2-22.8,22.8S62.4,65.7,75,65.7s22.8-10.2,22.8-22.8S87.6,20.1,75,20.1L75,20.1z"/>
					</g>
				</g>
			</g>
			<polygon class="st3" points="45.9,41.5 45.5,42.1 46.2,42 46.4,42.6 46.7,42 47.4,42.1 47,41.5 47.4,41 46.7,41.1 46.4,40.5 
				46.2,41.1 45.5,41 			"/>
		</g>
		<rect x="1.3" y="70" class="st1" width="97.3" height="10.8"/>
	</g>
	<g>
		<path class="st4" d="M13.4,78c-0.7,0.7-1.6,1-2.5,1c-2.5,0-3.5-1.7-3.5-3.4c0-1.7,1.1-3.5,3.5-3.5c0.9,0,1.8,0.3,2.4,1l-0.8,0.8
			c-0.4-0.4-1-0.6-1.6-0.6c-1.6,0-2.3,1.2-2.3,2.3c0,1.1,0.6,2.2,2.3,2.2c0.6,0,1.2-0.2,1.7-0.7L13.4,78z"/>
		<path class="st4" d="M27.3,75.5c0,1.7-1.1,3.4-3.4,3.4c-2.3,0-3.4-1.7-3.4-3.4s1.1-3.5,3.4-3.5C26.2,72.1,27.3,73.8,27.3,75.5z
			 M21.7,75.6c0,1.1,0.6,2.3,2.2,2.3c1.6,0,2.1-1.2,2.2-2.3c0-1.1-0.6-2.4-2.2-2.4C22.3,73.2,21.7,74.5,21.7,75.6z"/>
		<path class="st4" d="M39.2,72.2h1.3v6.6h-0.8v0l-3.5-4.5v4.5H35v-6.6h1l3.2,4.1V72.2z"/>
		<path class="st4" d="M52.5,73.8c-0.2-0.4-0.9-0.7-1.6-0.7c-0.9,0-1.4,0.4-1.4,0.9c0,0.6,0.7,0.7,1.5,0.8c1.4,0.2,2.7,0.5,2.7,2.1
			c0,1.5-1.3,2.1-2.8,2.1c-1.4,0-2.4-0.4-2.9-1.6l1-0.5c0.3,0.7,1.1,1.1,1.9,1.1c0.8,0,1.5-0.3,1.5-1c0-0.6-0.7-0.9-1.5-1
			c-1.4-0.2-2.6-0.5-2.6-2c0-1.4,1.3-1.9,2.6-1.9c1,0,2.1,0.3,2.6,1.3L52.5,73.8z"/>
		<path class="st4" d="M67.9,75.5c0,1.7-1.1,3.4-3.4,3.4s-3.4-1.7-3.4-3.4s1.1-3.5,3.4-3.5C66.8,72.1,67.9,73.8,67.9,75.5z
			 M62.3,75.6c0,1.1,0.6,2.3,2.2,2.3c1.6,0,2.1-1.2,2.2-2.3c0-1.1-0.6-2.4-2.2-2.4C62.9,73.2,62.3,74.5,62.3,75.6z"/>
		<path class="st4" d="M76.7,72.2v5.5h3.4v1.2h-4.7v-6.6H76.7z"/>
		<path class="st4" d="M92.6,78.8h-5c0-2.2,0-4.4,0-6.6h5v1.2h-3.7v1.5h3.6v1.2h-3.6v1.5h3.7V78.8z"/>
	</g>
</g>
</svg>
